<svg width="236" height="39" viewBox="0 0 236 39" fill="none" xmlns="http://www.w3.org/2000/svg">
<g id="aka_logo_rektangulaert 1">
<path id="Vector" d="M22.0134 16.4091C24.0762 16.1309 26.0877 15.9504 28.113 16.1964C26.1776 16.4375 24.3134 16.9073 22.4592 17.6652C23.8852 21.7094 25.3011 25.7301 26.7558 29.8558H25.5821C24.8953 29.8558 24.2085 29.857 23.5218 29.8558C22.3818 29.8521 21.7437 29.3984 21.3754 28.3376C20.4302 25.6126 19.4825 22.8876 18.5347 20.1639C18.506 20.0798 18.4636 20.0007 18.3699 19.7905C17.4384 20.5769 16.5107 21.2952 15.6591 22.0927C13.7162 23.9126 12.1667 26.0354 10.9405 28.3808C10.3974 29.4194 9.59949 29.9053 8.42327 29.8632C7.54548 29.8323 6.66644 29.857 5.71997 29.857C6.1495 28.6343 6.55281 27.4795 6.95987 26.3272C9.09504 20.2826 11.2315 14.2392 13.3654 8.19464C13.8474 6.83093 14.5491 6.33514 16.0325 6.33514C16.8254 6.33514 17.6182 6.33514 18.4523 6.33514C19.636 9.6857 20.8148 13.0239 22.0109 16.4115L22.0134 16.4091ZM16.0837 13.1327C15.3295 15.2691 14.609 17.3129 13.8861 19.364C15.1484 18.7347 16.3621 18.1301 17.6058 17.5107C17.1125 16.0913 16.6181 14.6683 16.0837 13.1327Z" fill="#3F5D41"/>
<path id="Vector_2" d="M47.1535 23.3426C47.5256 23.5429 47.9439 23.6876 48.2585 23.9522C49.3348 24.8547 49.4622 26.0441 49.155 27.3151C48.8541 28.5651 48.045 29.3625 46.7614 29.5492C45.8574 29.6803 44.9284 29.6605 44.0107 29.6753C42.822 29.6939 41.6332 29.6803 40.4133 29.6803V16.9655C42.4386 17.0545 44.4427 17.0396 46.4193 17.2622C47.9788 17.4377 48.8254 18.4998 48.994 20.0601C49.1488 21.4918 48.4758 22.8481 47.2047 23.2685C47.1809 23.2759 47.1685 23.3192 47.1535 23.3426ZM43.0592 27.7824C43.8296 27.7466 44.57 27.7627 45.293 27.665C46.1571 27.5475 46.5978 26.9714 46.6116 26.1072C46.6253 25.2491 46.1958 24.5963 45.3642 24.4838C44.6137 24.3824 43.8383 24.4628 43.0592 24.4628V27.7837V27.7824ZM43.0792 19.0203V22.497C43.8845 22.3894 44.6637 22.3647 45.3929 22.1669C46.1109 21.9715 46.3968 21.3261 46.3144 20.4953C46.2432 19.7844 45.8349 19.2886 45.1194 19.181C44.4527 19.0821 43.7722 19.071 43.0792 19.0203Z" fill="#3F5D41"/>
<path id="Vector_3" d="M67.5239 29.6654V17.0409C69.5255 17.1175 71.5183 16.827 73.4649 17.3079C75.7599 17.8742 77.106 19.4171 77.5804 21.655C78.0412 23.8248 77.7041 25.8821 76.2731 27.6662C75.2318 28.9632 73.7833 29.5517 72.1676 29.6456C70.6393 29.7346 69.1009 29.6642 67.5252 29.6642L67.5239 29.6654ZM70.2085 19.223V27.5191C74.0031 27.7787 75.1506 25.2751 75.0545 22.9631C74.9483 20.4137 73.0129 18.9065 70.2085 19.223Z" fill="#3F5D41"/>
<path id="Vector_4" d="M35.073 24.8794C36.2417 26.4892 37.3717 28.0445 38.5405 29.6555H35.3115C34.2089 28.0792 33.0939 26.4855 31.9065 24.7904V29.6419H29.2456V16.9593C31.1723 17.0557 33.0902 17.0273 34.9681 17.2782C36.8685 17.5317 37.9236 18.846 38.051 20.6721C38.1908 22.6824 37.2856 24.0943 35.4401 24.7422C35.3402 24.7768 35.2416 24.8164 35.073 24.8782V24.8794ZM31.874 23.1943C32.6107 23.1374 33.28 23.1423 33.9267 23.0224C34.8407 22.8518 35.3677 22.1087 35.3564 21.153C35.3464 20.2072 34.7783 19.4283 33.8868 19.3108C33.24 19.2255 32.572 19.2948 31.874 19.2948C31.874 19.4135 31.874 19.5173 31.874 19.6224C31.874 20.7759 31.874 21.9307 31.874 23.1943Z" fill="#3F5D41"/>
<path id="Vector_5" d="M100.478 16.9655C102.386 17.052 104.26 16.9988 106.087 17.2585C108.164 17.5527 109.175 18.8386 109.284 20.8353C109.392 22.7714 108.469 24.103 106.557 24.7731C106.491 24.7966 106.429 24.8337 106.308 24.8906C107.456 26.4744 108.593 28.0396 109.764 29.6543H106.536C105.441 28.0903 104.327 26.5003 103.127 24.7867V29.6382H100.477V16.9655H100.478ZM103.116 23.1918C103.838 23.1362 104.51 23.1436 105.156 23.0212C106.059 22.8506 106.575 22.1384 106.589 21.1975C106.602 20.2938 106.117 19.5371 105.249 19.3603C104.561 19.2206 103.837 19.2589 103.116 19.2181V23.1906V23.1918Z" fill="#3F5D41"/>
<path id="Vector_6" d="M122.732 29.658H119.817C119.581 28.9594 119.349 28.2708 119.109 27.5574H114.24C114.001 28.2263 113.751 28.9236 113.49 29.6493H110.673C112.144 25.4358 113.606 21.2433 115.067 17.0606H118.372C119.816 21.2334 121.263 25.4135 122.731 29.6592L122.732 29.658ZM114.942 25.3245H118.39C117.818 23.6369 117.266 22.0073 116.672 20.2529C116.063 22.0345 115.509 23.6628 114.942 25.3245Z" fill="#3F5D41"/>
<path id="Vector_7" d="M92.5003 22.2892C93.6478 20.5546 94.7941 18.8188 95.9503 17.0705H99.0432C97.6547 19.113 96.3012 21.1023 94.9152 23.1423C96.2675 25.285 97.6272 27.4399 99.0182 29.6444H95.8854C94.7678 27.8937 93.6341 26.117 92.4317 24.2316V29.637H89.7358V17.0903H92.3767V22.2571C92.4179 22.2682 92.4591 22.2781 92.5016 22.2892H92.5003Z" fill="#3F5D41"/>
<path id="Vector_8" d="M87.6419 20.6795H85.0497C85.0197 20.6053 84.976 20.5287 84.9573 20.4471C84.6913 19.2824 83.5701 18.773 82.495 19.3294C81.6671 19.7584 81.5523 20.8699 82.3189 21.4139C82.7073 21.6896 83.1705 21.8701 83.615 22.0605C84.2581 22.3375 84.9311 22.5514 85.5604 22.853C87.2123 23.6443 87.8991 24.8609 87.7293 26.6054C87.5844 28.0866 86.5268 29.2871 84.9348 29.7297C83.8722 30.0252 82.7934 30.0252 81.7296 29.7297C79.989 29.2475 78.9776 27.8418 79.03 26.0132H81.5285C81.8807 27.3769 82.8708 27.9469 84.072 27.4647C84.5515 27.2718 84.8999 26.9615 84.9548 26.415C85.0085 25.8747 84.775 25.4556 84.3118 25.2145C83.8048 24.9512 83.2517 24.7731 82.7272 24.5394C82.0717 24.2464 81.3987 23.9794 80.7794 23.6233C79.4346 22.8506 79.0026 21.6278 79.1649 20.154C79.316 18.7804 80.0277 17.7889 81.3025 17.2251C82.5262 16.6836 83.7961 16.6638 85.0547 17.0792C86.6093 17.5911 87.5719 18.9424 87.6431 20.677L87.6419 20.6795Z" fill="#3F5D41"/>
<path id="Vector_9" d="M53.5665 19.207V22.2781H57.9804V24.422H53.5715V27.529H57.9816V29.6543H50.9119V17.0953H57.9829V19.2082H53.5677L53.5665 19.207Z" fill="#3F5D41"/>
<path id="Vector_10" d="M124.085 17.0755H131.158V19.1958H126.738V22.2744H131.168V24.4108H126.723V29.6382H124.086V17.0755H124.085Z" fill="#3F5D41"/>
<path id="Vector_11" d="M135.155 19.2131H132.147V17.0829H140.816V19.2082H137.841V29.6493H135.156V19.2131H135.155Z" fill="#3F5D41"/>
<path id="Vector_12" d="M59.475 17.0718H65.0739V17.6318C65.0739 20.2554 65.0826 22.879 65.0664 25.5013C65.0627 26.0132 65.0077 26.5362 64.8904 27.0344C64.4871 28.7456 63.2309 29.5022 61.5965 29.7594C60.9085 29.8682 60.2042 29.8744 59.4675 29.9312V27.6031C59.907 27.5685 60.3753 27.5772 60.8235 27.4869C61.7775 27.2965 62.3232 26.755 62.3444 25.8042C62.3931 23.6307 62.3594 21.4547 62.3594 19.2342H59.4738V17.0705L59.475 17.0718Z" fill="#3F5D41"/>
<path id="Vector_13" d="M185.639 17.0742H186.551C189 20.4236 191.47 23.8001 194.012 27.2768V17.0903H195.147V29.6568H194.293C191.828 26.2704 189.343 22.8555 186.79 19.3479V29.6419H185.64V17.0742H185.639Z" fill="#476348"/>
<path id="Vector_14" d="M220.771 19.4604V29.6518H219.658V17.0829H220.603C223.049 20.4273 225.519 23.805 228.081 27.3089V17.0718H229.199V29.6518H228.334C225.857 26.2481 223.374 22.8357 220.89 19.4246C220.85 19.4357 220.81 19.4468 220.77 19.4592L220.771 19.4604Z" fill="#476348"/>
<path id="Vector_15" d="M142.142 29.6654H141.002C142.678 25.4494 144.343 21.2643 146.012 17.0656H147.244C148.856 21.2482 150.47 25.4321 152.098 29.6555H150.842C150.433 28.5774 150.024 27.4993 149.611 26.4101H143.497C143.056 27.4684 142.601 28.5638 142.142 29.6654ZM149.202 25.3468C148.318 23.062 147.468 20.8625 146.589 18.5888C145.682 20.8872 144.808 23.1003 143.922 25.3468H149.202Z" fill="#476348"/>
<path id="Vector_16" d="M177.71 17.0606H178.933C180.547 21.2482 182.16 25.4346 183.788 29.6605H182.542C182.132 28.5861 181.717 27.4931 181.3 26.3989H175.19C174.743 27.4746 174.289 28.57 173.833 29.6666H172.699C174.376 25.4457 176.038 21.2655 177.709 17.0606H177.71ZM175.615 25.348H180.9C180.032 23.1077 179.179 20.907 178.28 18.5851C177.361 20.9169 176.501 23.0978 175.615 25.348Z" fill="#3F5D41"/>
<path id="Vector_17" d="M208.295 19.1315C208.038 19.338 207.777 19.5457 207.537 19.7374C207.034 19.3182 206.603 18.8756 206.096 18.5529C204.107 17.2894 201.478 17.7864 200.055 19.657C198.344 21.9084 198.467 25.3802 200.334 27.4338C202.027 29.2957 205.009 29.3946 206.819 27.6489C207.049 27.4276 207.281 27.2075 207.539 26.9615C207.785 27.1754 208.038 27.3954 208.321 27.6415C207.367 29.0571 206.009 29.7371 204.382 29.883C199.646 30.3083 197.571 26.4954 197.692 23.1127C197.767 21.0356 198.497 19.2502 200.209 17.9533C202.718 16.0542 206.674 16.6254 208.295 19.1303V19.1315Z" fill="#476348"/>
<path id="Vector_18" d="M210.543 17.0681H216.901V18.0621H211.66V22.7887H216.911V23.7852H211.648V28.6689H216.895V29.6555H210.543V17.0681Z" fill="#3F5D41"/>
<path id="Vector_19" d="M155.044 28.5749H159.625V29.6469H153.939V17.0742H155.044V28.5737V28.5749Z" fill="#476348"/>
<path id="Vector_20" d="M167.536 29.6605H161.863V17.0804H162.973V28.5663H167.537V29.6605H167.536Z" fill="#476348"/>
<path id="Vector_21" d="M169.802 17.0582H170.871V29.6432H169.802V17.0582Z" fill="#476348"/>
</g>
</svg>
