<svg width="202" height="59" viewBox="0 0 202 59" fill="none" xmlns="http://www.w3.org/2000/svg">
<g id="ehHovedstaden_logo_topmenu 1" clip-path="url(#clip0_348_4465)">
<path id="Vector" d="M25.5013 55.6388L39.6264 49.274L46.4065 55.6388H25.5013ZM19.2863 30.1794L39.0614 48.7733L24.23 55.4958L19.2863 30.1794ZM3.96054 55.6388L18.6506 30.1794L23.665 55.6388H3.96054ZM15.2606 4.64849L18.5094 29.1782L4.17242 54.0655L15.2606 4.64849ZM33.2701 33.4691L19.0744 29.0352L15.8256 4.36242L33.2701 33.4691ZM41.8158 47.5575L39.7676 48.4873L19.9925 29.9648L33.7645 34.2558L41.8158 47.5575ZM45.7708 54.2085L40.262 48.9879L42.1689 48.1297L45.7708 54.2085ZM53.3277 45.9842L47.1833 55.3527L42.6633 47.8437L51.4914 43.8388C51.4209 43.6242 51.2796 43.4812 51.2089 43.2667L42.3101 47.2715L34.6826 34.5418L51.0677 39.6194C51.1384 39.4048 51.2089 39.1903 51.2796 39.0473L34.2588 33.7552L15.5431 2.78909C15.4725 2.64607 15.3312 2.57455 15.19 2.64607C15.1194 2.71758 15.0487 2.78909 14.9781 2.86061L3.11304 55.8533C3.11304 55.9249 3.11304 55.9964 3.11304 56.0679C3.18367 56.1394 3.25429 56.2109 3.39554 56.2109H47.1833C47.254 56.2109 47.254 56.2109 47.3245 56.1394C47.3245 56.1394 47.3952 56.1394 47.3952 56.0679C47.3952 56.0679 47.3952 56.0679 47.4658 55.9964L53.8221 46.2703C53.6103 46.2703 53.469 46.1273 53.3277 45.9842Z" fill="#636363"/>
<path id="Vector_2" d="M56.859 43.9103C56.4352 43.9103 56.0115 43.7673 55.5877 43.6243C55.3758 43.5528 55.2346 43.4097 55.0933 43.2667C54.8815 43.0521 54.6696 42.8376 54.5283 42.5515C54.3871 42.4085 54.3165 42.194 54.2458 41.9794C54.1752 41.6933 54.1046 41.4073 54.1046 41.1212C54.1046 40.9782 54.1046 40.7636 54.1752 40.6206C54.2458 40.4061 54.2458 40.1915 54.3165 40.0485C54.7402 39.0473 55.729 38.3321 56.859 38.3321C58.4127 38.3321 59.6134 39.5478 59.6134 41.1212C59.6134 42.623 58.4127 43.9103 56.859 43.9103ZM56.859 35.0424C54.2458 35.0424 52.0564 36.6873 51.2089 39.0473C51.1383 39.2618 51.0677 39.4763 50.9971 39.6194C50.8558 40.12 50.7852 40.6206 50.7852 41.1212C50.7852 41.9078 50.9264 42.623 51.2089 43.3382C51.2796 43.5528 51.3502 43.6958 51.4914 43.9103C51.9152 44.7685 52.5508 45.4836 53.2571 46.0558C53.3983 46.1988 53.6102 46.2703 53.7515 46.4133C54.6696 46.9855 55.6583 47.2715 56.7883 47.2715C60.1077 47.2715 62.7915 44.554 62.7915 41.1928C62.7915 37.8315 60.1784 35.0424 56.859 35.0424Z" fill="#0052FF"/>
<path id="Vector_3" d="M21.2639 55.9248C21.2639 57.4982 22.4645 58.714 24.0182 58.714C25.5721 58.714 26.7727 57.4982 26.7727 55.9248C26.7727 54.3515 25.5721 53.1358 24.0182 53.1358C22.5352 53.1358 21.2639 54.423 21.2639 55.9248Z" fill="#0052FF"/>
<path id="Vector_4" d="M0.641357 55.9248C0.641357 57.4982 1.91262 58.714 3.39575 58.714C4.94951 58.714 6.15014 57.4982 6.15014 55.9248C6.15014 54.3515 4.94951 53.1358 3.39575 53.1358C1.91262 53.1358 0.641357 54.423 0.641357 55.9248Z" fill="#0052FF"/>
<path id="Vector_5" d="M16.0376 29.3212C16.0376 30.8945 17.3088 32.1103 18.792 32.1103C20.3457 32.1103 21.5464 30.8945 21.5464 29.3212C21.5464 27.7479 20.3457 26.5321 18.792 26.5321C17.3088 26.5321 16.0376 27.7479 16.0376 29.3212Z" fill="#0052FF"/>
<path id="Vector_6" d="M12.5769 2.93213C12.5769 4.43395 13.7776 5.72122 15.3313 5.72122C16.8851 5.72122 18.0857 4.50546 18.0857 2.93213C18.0857 1.35879 16.8851 0.143036 15.3313 0.143036C13.7776 0.143036 12.5769 1.35879 12.5769 2.93213Z" fill="#0052FF"/>
<path id="Vector_7" d="M44.4292 55.9248C44.4292 57.4982 45.7004 58.714 47.1835 58.714C48.7374 58.714 49.9379 57.4982 49.9379 55.9248C49.9379 54.3515 48.7374 53.1358 47.1835 53.1358C45.6298 53.1358 44.4292 54.423 44.4292 55.9248Z" fill="#0052FF"/>
<path id="Vector_8" d="M197.968 42.051C198.604 41.8364 199.17 41.5503 199.593 41.1927C200.017 40.8352 200.37 40.406 200.653 39.9055C200.935 39.4048 201.005 38.8327 201.005 38.2606C201.005 36.1152 199.664 34.8994 196.98 34.5418L195.638 34.3273C195.143 34.2558 194.791 34.1127 194.649 33.9697C194.508 33.8267 194.367 33.5406 194.367 33.183C194.367 32.897 194.508 32.611 194.72 32.3964C195.002 32.1818 195.355 32.1103 195.991 32.1103C196.485 32.1103 196.98 32.2533 197.475 32.4679C197.968 32.6825 198.392 33.04 198.816 33.3976L200.793 31.3237C200.511 31.0376 200.158 30.7515 199.876 30.537C199.593 30.3225 199.24 30.1079 198.816 29.8933C198.463 29.7503 198.039 29.6073 197.545 29.5358C197.051 29.4643 196.485 29.3927 195.85 29.3927C195.143 29.3927 194.438 29.4643 193.872 29.6788C193.308 29.8933 192.813 30.1794 192.389 30.4655C191.966 30.7515 191.683 31.2522 191.471 31.7527C191.259 32.2533 191.118 32.8255 191.118 33.3976C191.118 35.6145 192.46 36.8303 195.214 37.1879L196.556 37.331C197.404 37.474 197.757 37.76 197.757 38.3321C197.757 38.6897 197.616 38.9758 197.333 39.1903C197.051 39.4048 196.627 39.4764 195.921 39.4764C195.285 39.4764 194.65 39.3333 194.155 39.0473C193.66 38.7612 193.166 38.4037 192.742 37.903L190.694 39.977C191.33 40.6921 192.037 41.1927 192.884 41.6218C193.66 41.9794 194.65 42.194 195.85 42.194C196.627 42.337 197.333 42.2655 197.968 42.051ZM185.115 42.051H188.576V29.7503H185.115V37.76C185.115 38.046 185.044 38.3321 184.903 38.5467C184.762 38.7612 184.621 38.9758 184.409 39.1188C184.197 39.2618 183.985 39.4048 183.702 39.4764C183.42 39.5479 183.208 39.6194 182.926 39.6194C182.29 39.6194 181.866 39.4048 181.584 38.9758C181.301 38.5467 181.16 37.9745 181.16 37.2594V29.7503H177.769V37.474C177.769 39.0473 178.123 40.263 178.759 41.0497C179.394 41.9079 180.383 42.337 181.584 42.337C182.078 42.337 182.502 42.2655 182.926 42.1225C183.279 41.9794 183.631 41.8364 183.914 41.6218C184.197 41.4073 184.409 41.1212 184.621 40.8352C184.833 40.5491 184.973 40.263 185.044 39.977H185.185V42.051H185.115ZM164.068 42.051H167.529V34.0412C167.529 33.7552 167.6 33.4691 167.741 33.2545C167.882 33.04 168.023 32.8255 168.235 32.6825C168.447 32.5394 168.659 32.3964 168.942 32.3248C169.224 32.2533 169.506 32.2533 169.718 32.2533C170.354 32.2533 170.778 32.4679 171.06 32.8255C171.272 33.183 171.414 33.8267 171.414 34.6133V42.051H174.875V34.3273C174.875 32.754 174.521 31.5382 173.885 30.68C173.25 29.8218 172.261 29.3927 171.06 29.3927C170.072 29.3927 169.365 29.6073 168.801 30.1079C168.235 30.6085 167.882 31.1091 167.671 31.7527H167.529V24.6012H164.068V42.051ZM158.63 42.051C159.266 41.8364 159.831 41.5503 160.255 41.1927C160.678 40.8352 161.031 40.406 161.314 39.9055C161.526 39.4048 161.667 38.8327 161.667 38.2606C161.667 36.1152 160.326 34.8994 157.642 34.5418L156.299 34.3273C155.805 34.2558 155.452 34.1127 155.311 33.9697C155.099 33.7552 155.028 33.5406 155.028 33.183C155.028 32.897 155.169 32.611 155.381 32.3964C155.593 32.1818 156.017 32.1103 156.653 32.1103C157.147 32.1103 157.642 32.2533 158.136 32.4679C158.63 32.6825 159.054 33.04 159.478 33.3976L161.455 31.3237C161.173 31.0376 160.819 30.7515 160.537 30.537C160.184 30.3225 159.902 30.1079 159.478 29.8933C159.124 29.7503 158.701 29.6073 158.206 29.5358C157.712 29.4643 157.147 29.3927 156.511 29.3927C155.805 29.3927 155.099 29.4643 154.534 29.6788C153.969 29.8933 153.474 30.1794 153.051 30.4655C152.627 30.823 152.344 31.2522 152.132 31.7527C151.921 32.2533 151.78 32.8255 151.78 33.3976C151.78 35.6145 153.122 36.8303 155.876 37.1879L157.218 37.331C158.065 37.474 158.418 37.76 158.418 38.3321C158.418 38.6897 158.277 38.9758 157.994 39.1903C157.712 39.4048 157.289 39.4764 156.582 39.4764C155.947 39.4764 155.311 39.3333 154.816 39.0473C154.322 38.7612 153.828 38.4037 153.404 37.903L151.356 39.977C151.991 40.6921 152.698 41.1927 153.545 41.6218C154.322 41.9794 155.311 42.194 156.511 42.194C157.289 42.337 157.994 42.2655 158.63 42.051ZM146.624 42.051L150.649 29.7503H147.401L145.918 34.7564L144.787 39.1903H144.576L143.446 34.7564L141.962 29.7503H138.573L142.598 42.051H146.624ZM133.841 42.051V34.8279C133.841 34.1127 134.053 33.6122 134.547 33.326C135.041 33.04 135.748 32.897 136.807 32.897H137.654V29.6788H137.019C136.524 29.6788 136.101 29.7503 135.748 29.8933C135.395 30.0364 135.112 30.251 134.829 30.4655C134.547 30.68 134.335 31.0376 134.194 31.3237C134.053 31.6097 133.911 31.9673 133.841 32.3248H133.699V29.6788H130.239V41.9794H133.841V42.051ZM123.883 32.6825C124.236 33.1115 124.377 33.7552 124.377 34.4703V34.6848H120.14V34.4703C120.14 33.6837 120.351 33.1115 120.704 32.611C121.128 32.1818 121.623 31.8958 122.329 31.8958C123.035 31.9673 123.6 32.2533 123.883 32.6825ZM125.436 41.7648C126.284 41.4073 126.99 40.9067 127.555 40.263L125.86 38.1176C125.507 38.5467 125.083 38.8327 124.589 39.1903C124.095 39.5479 123.529 39.6194 122.823 39.6194C121.905 39.6194 121.199 39.4048 120.775 38.9043C120.351 38.4037 120.14 37.76 120.14 36.9733V36.7588H127.979V35.7576C127.979 34.8994 127.908 34.1127 127.696 33.3976C127.485 32.6825 127.132 31.9673 126.708 31.3952C126.284 30.823 125.648 30.3225 124.942 30.0364C124.236 29.6788 123.388 29.5358 122.329 29.5358C121.411 29.5358 120.634 29.6788 119.928 29.9648C119.221 30.251 118.586 30.68 118.162 31.2521C117.667 31.8243 117.315 32.4679 117.032 33.2545C116.749 34.0412 116.679 34.8994 116.679 35.9006C116.679 36.9018 116.82 37.76 117.032 38.5467C117.315 39.3333 117.667 40.0485 118.162 40.5491C118.657 41.1212 119.292 41.5503 119.998 41.8364C120.704 42.1225 121.552 42.2655 122.47 42.2655C123.529 42.337 124.519 42.194 125.436 41.7648ZM111.735 42.051L115.761 29.7503H112.512L111.029 34.7564L109.899 39.1903H109.687L108.557 34.7564L107.074 29.7503H103.684L107.709 42.051H111.735ZM91.3952 42.051H94.8554V34.0412C94.8554 33.7552 94.926 33.4691 95.0674 33.2545C95.2087 33.04 95.35 32.8255 95.562 32.6825C95.774 32.5394 95.9852 32.3964 96.2679 32.3248C96.5505 32.2533 96.8332 32.2533 97.0452 32.2533C97.6803 32.2533 98.1043 32.4679 98.387 32.8255C98.599 33.183 98.7403 33.8267 98.7403 34.6133V42.051H102.201V34.3273C102.201 32.754 101.847 31.5382 101.212 30.68C100.576 29.8218 99.5875 29.3927 98.387 29.3927C97.3977 29.3927 96.6918 29.6073 96.1265 30.1079C95.562 30.6085 95.2087 31.1091 94.9967 31.7527H94.8554V24.6012H91.3952V42.051ZM85.4625 42.051V34.8279C85.4625 34.1127 85.6745 33.6122 86.1684 33.326C86.663 33.04 87.3689 32.897 88.4289 32.897H89.276V29.6788H88.6408C88.1462 29.6788 87.7222 29.7503 87.3689 29.8933C87.0164 30.0364 86.7337 30.251 86.451 30.4655C86.1684 30.7515 85.9564 31.0376 85.8159 31.3237C85.6745 31.6097 85.5332 31.9673 85.4625 32.3248H85.3212V29.6788H81.8602V41.9794H85.4625V42.051ZM79.1766 42.051V38.9043H71.6904V35.3285H78.1173V32.1818H71.6904V28.8206H79.1766V25.674H68.1592V42.051H79.1766Z" fill="black"/>
<path id="Vector_9" d="M68.23 56.354V49.4885H69.3601V52.3491H72.6794V49.4885H73.7388V56.354H72.6794V53.3503H69.3601V56.354H68.23Z" fill="#0052FF"/>
<path id="Vector_10" d="M80.6597 54.709C81.1543 54.2085 81.3663 53.6363 81.3663 52.9212C81.3663 52.206 81.1543 51.5624 80.6597 51.1333C80.1658 50.6327 79.6005 50.4182 78.8942 50.4182C78.1879 50.4182 77.6229 50.6327 77.1285 51.1333C76.6342 51.634 76.4223 52.206 76.4223 52.9212C76.4223 53.6363 76.6342 54.2085 77.1285 54.709C77.6229 55.2097 78.1879 55.4242 78.8942 55.4242C79.6005 55.4242 80.1658 55.2097 80.6597 54.709ZM76.281 55.4242C75.5748 54.709 75.2217 53.9224 75.2217 52.9212C75.2217 51.92 75.5748 51.0618 76.281 50.3467C76.9873 49.6315 77.8348 49.274 78.8236 49.274C79.8125 49.274 80.6597 49.6315 81.3663 50.3467C82.0722 51.0618 82.4255 51.92 82.4255 52.8497C82.4255 53.8509 82.0722 54.709 81.3663 55.3527C80.6597 56.0678 79.8125 56.354 78.7529 56.354C77.8348 56.497 76.9873 56.1394 76.281 55.4242Z" fill="#0052FF"/>
<path id="Vector_11" d="M88.4995 49.4885H89.7L86.8044 56.354H86.0278L83.0615 49.4885H84.3327L86.451 54.566L88.4995 49.4885Z" fill="#0052FF"/>
<path id="Vector_12" d="M91.0417 56.354V49.4885H95.4912V50.4897H92.1009V52.3491H95.2086V53.3503H92.1009V55.3527H95.4912V56.354H91.0417Z" fill="#0052FF"/>
<path id="Vector_13" d="M104.884 55.1382L105.591 54.423C105.944 55.1382 106.65 55.4958 107.286 55.4958C107.992 55.4958 108.487 55.0667 108.487 54.566C108.487 54.2085 108.275 53.9225 107.78 53.7079C107.639 53.6364 107.427 53.5648 107.074 53.4218C106.721 53.2788 106.438 53.1358 106.297 53.0642C105.591 52.6352 105.238 52.063 105.238 51.4194C105.238 50.8473 105.45 50.4182 105.874 50.0606C106.297 49.703 106.791 49.4885 107.427 49.4885C108.275 49.4885 108.98 49.846 109.546 50.4897L108.91 51.2048C108.557 50.7042 108.063 50.4897 107.497 50.4897C106.862 50.4897 106.438 50.8473 106.438 51.3479C106.438 51.7055 106.65 51.92 107.003 52.1345C107.145 52.206 107.357 52.3491 107.78 52.4921C108.204 52.6352 108.487 52.7782 108.628 52.9212C109.334 53.2788 109.687 53.8509 109.687 54.566C109.687 55.1382 109.475 55.6388 109.051 55.9964C108.628 56.354 108.063 56.5685 107.357 56.5685C106.367 56.497 105.45 55.9963 104.884 55.1382Z" fill="#0052FF"/>
<path id="Vector_14" d="M98.8103 55.3527H100.293C101 55.3527 101.495 55.1382 101.847 54.6375C102.201 54.2085 102.413 53.5648 102.413 52.8497C102.413 52.1345 102.201 51.5625 101.847 51.1333C101.495 50.7042 100.929 50.4182 100.293 50.4182H98.8103V55.3527ZM97.6804 56.354V49.4885H100.293C101.283 49.4885 102.13 49.7745 102.695 50.4182C103.26 51.0618 103.542 51.8485 103.542 52.9212C103.542 53.994 103.26 54.8521 102.625 55.4242C102.059 56.0679 101.212 56.354 100.152 56.354H97.6804Z" fill="#0052FF"/>
<path id="Vector_15" d="M113.148 50.4897H111.17V49.4885H116.325V50.4897H114.278V56.354H113.148V50.4897Z" fill="#0052FF"/>
<path id="Vector_16" d="M119.786 51.2048L118.869 53.7079H120.775L119.786 51.2048ZM121.694 56.354L121.058 54.6375H118.445L117.809 56.354H116.608L119.362 49.4885H120.069L122.823 56.354H121.694Z" fill="#0052FF"/>
<path id="Vector_17" d="M125.436 55.3527H126.92C127.625 55.3527 128.12 55.1382 128.473 54.6375C128.827 54.2085 129.038 53.5648 129.038 52.8497C129.038 52.1345 128.827 51.5625 128.473 51.1333C128.12 50.7042 127.555 50.4182 126.92 50.4182H125.436V55.3527ZM124.377 56.354V49.4885H126.99C127.979 49.4885 128.827 49.7745 129.391 50.4182C129.957 51.0618 130.239 51.8485 130.239 52.9212C130.239 53.994 129.957 54.8521 129.321 55.4242C128.756 56.0679 127.908 56.354 126.849 56.354H124.377Z" fill="#0052FF"/>
<path id="Vector_18" d="M132.216 56.354V49.4885H136.666V50.4897H133.276V52.3491H136.383V53.3503H133.276V55.3527H136.666V56.354H132.216Z" fill="#0052FF"/>
<path id="Vector_19" d="M143.305 49.4885H144.364V56.354H143.728L139.773 51.7055V56.354H138.714V49.4885H139.279L143.305 54.2085V49.4885Z" fill="#0052FF"/>
</g>
<defs>
<clipPath id="clip0_348_4465">
<rect width="201" height="59" fill="white" transform="translate(0.5)"/>
</clipPath>
</defs>
</svg>
