<svg width="52" height="52" viewBox="0 0 52 52" fill="none" xmlns="http://www.w3.org/2000/svg" class="fill-ibgreen-400 stroke-ibgreen-400 group-hover:fill-ibsilver-500 group-hover:stroke-ibgreen-400">
<path d="M29.0285 6.11019C27.0358 4.47129 24.7024 3.29792 22.1985 2.67568C19.6945 2.05345 17.0833 1.99805 14.5552 2.51352C11.189 3.19347 8.10067 4.85801 5.68201 7.29596C3.26335 9.73391 1.62339 12.8354 0.970199 16.2069C0.493201 18.7348 0.579879 21.3368 1.22405 23.8273C1.86822 26.3179 3.05402 28.6356 4.69687 30.6152C6.22152 32.3357 7.09544 34.5358 7.16687 36.8335V43.3335C7.16687 45.0574 7.85169 46.7107 9.07067 47.9297C10.2897 49.1487 11.943 49.8335 13.6669 49.8335H22.3335C24.0574 49.8335 25.7107 49.1487 26.9297 47.9297C28.1487 46.7107 28.8335 45.0574 28.8335 43.3335V37.2452C28.9062 34.7084 29.8382 32.2715 31.4769 30.3335C34.348 26.7819 35.7014 22.2406 35.2429 17.6967C34.7845 13.1528 32.5512 8.97341 29.0285 6.06686V6.11019ZM24.5002 43.3335C24.5002 43.9082 24.2719 44.4593 23.8656 44.8656C23.4593 45.2719 22.9082 45.5002 22.3335 45.5002H13.6669C13.0922 45.5002 12.5411 45.2719 12.1348 44.8656C11.7285 44.4593 11.5002 43.9082 11.5002 43.3335V41.1669H24.5002V43.3335ZM28.1185 27.6469C25.94 30.2308 24.6689 33.4579 24.5002 36.8335H20.1669V30.3335C20.1669 29.7589 19.9386 29.2078 19.5323 28.8015C19.1259 28.3951 18.5748 28.1669 18.0002 28.1669C17.4256 28.1669 16.8745 28.3951 16.4681 28.8015C16.0618 29.2078 15.8335 29.7589 15.8335 30.3335V36.8335H11.5002C11.443 33.5144 10.2152 30.3222 8.03353 27.8202C6.59409 26.0955 5.62613 24.0273 5.22404 21.8171C4.82195 19.6069 4.99944 17.3303 5.73922 15.2092C6.479 13.088 7.75581 11.1948 9.44516 9.71406C11.1345 8.23332 13.1787 7.21562 15.3785 6.76019C17.2691 6.37093 19.2225 6.40755 21.0972 6.86737C22.9718 7.3272 24.7205 8.19869 26.2163 9.41859C27.7121 10.6385 28.9175 12.1762 29.745 13.92C30.5725 15.6638 31.0013 17.57 31.0002 19.5002C31.0162 22.4682 29.9972 25.349 28.1185 27.6469Z"/>
</svg>
