<svg width="273" height="74" viewBox="0 0 273 74" fill="none" xmlns="http://www.w3.org/2000/svg">
<g clip-path="url(#clip0_477_2830)">
<path d="M0 5.27C0 4.54 0.15 3.86 0.45 3.22C0.75 2.58 1.16 2.02 1.68 1.54C2.2 1.06 2.81 0.68 3.52 0.41C4.23 0.14 4.98 0 5.79 0C6.6 0 7.36 0.14 8.08 0.41C8.79 0.68 9.41 1.06 9.94 1.54C10.46 2.02 10.88 2.58 11.19 3.22C11.5 3.86 11.66 4.54 11.66 5.27C11.66 6 11.5 6.68 11.19 7.32C10.88 7.96 10.46 8.52 9.94 9C9.42 9.48 8.8 9.86 8.08 10.13C7.36 10.4 6.6 10.54 5.79 10.54C4.98 10.54 4.23 10.4 3.52 10.13C2.81 9.86 2.2 9.48 1.68 9C1.16 8.52 0.75 7.96 0.45 7.32C0.15 6.68 0 6 0 5.27ZM0.47 18.59L11.25 15.62V52.3H0.47V18.59Z" fill="#FAF8FF"/>
<path d="M64.22 28.0899C64.22 27.3099 64.12 26.5599 63.93 25.8399C63.73 25.1199 63.47 24.5099 63.13 23.9799C62.79 23.4599 62.39 23.0399 61.92 22.7299C61.45 22.4199 60.94 22.2599 60.4 22.2599C59.78 22.2599 59.12 22.3599 58.45 22.5699C57.77 22.7799 57.11 23.0599 56.46 23.4099C55.81 23.7599 55.18 24.1699 54.58 24.6399C53.98 25.1099 53.47 25.5999 53.06 26.1199V52.2899H42.32V28.0699C42.32 27.2899 42.21 26.5399 42.01 25.8199C41.8 25.0999 41.52 24.4899 41.17 23.9599C40.82 23.4399 40.41 23.0199 39.94 22.7099C39.47 22.3999 38.99 22.2399 38.49 22.2399C37.92 22.2399 37.3 22.3399 36.63 22.5499C35.97 22.7599 35.31 23.0399 34.66 23.3899C34.01 23.7399 33.37 24.1499 32.75 24.6199C32.13 25.0899 31.56 25.5799 31.07 26.0999V52.2699H20.29V16.6799H31.07V19.7299C32.79 18.5799 34.55 17.6699 36.36 16.9799C38.17 16.2899 39.92 15.9399 41.61 15.9399C42.55 15.9399 43.49 16.0399 44.44 16.2499C45.39 16.4599 46.3 16.7599 47.17 17.1499C48.04 17.5399 48.84 18.0099 49.57 18.5599C50.3 19.1099 50.92 19.7299 51.45 20.4399C52.26 19.7899 53.16 19.1799 54.15 18.6199C55.14 18.0599 56.17 17.5799 57.26 17.1899C58.34 16.7999 59.44 16.4899 60.56 16.2699C61.68 16.0499 62.79 15.9399 63.88 15.9399C65.39 15.9399 66.83 16.2299 68.2 16.8199C69.57 17.4099 70.76 18.2099 71.79 19.2399C72.82 20.2699 73.63 21.4699 74.23 22.8299C74.83 24.1999 75.13 25.6599 75.13 27.2199V52.2999H64.23V28.0799L64.22 28.0899Z" fill="#FAF8FF"/>
<path d="M83.4399 16.6801H94.2999V19.4501C95.5499 18.4601 96.9799 17.6301 98.5999 16.9501C100.21 16.2701 102.08 15.9301 104.19 15.9301C106.48 15.9301 108.56 16.3801 110.42 17.2801C112.28 18.1801 113.88 19.3901 115.21 20.9101C116.54 22.4301 117.56 24.2201 118.28 26.2601C119 28.3001 119.35 30.4601 119.35 32.7201C119.35 35.6401 118.92 38.3301 118.06 40.8101C117.2 43.2801 115.98 45.4201 114.41 47.2201C112.83 49.0201 110.91 50.4201 108.65 51.4401C106.39 52.4601 103.85 52.9601 101.03 52.9601C99.6199 52.9601 98.3899 52.9101 97.3399 52.8001C96.2899 52.7001 95.2799 52.4301 94.3099 52.0201V66.3201H83.4499V16.6801H83.4399ZM94.2999 42.3801C94.2999 43.2401 94.4599 44.0501 94.7899 44.8001C95.1199 45.5601 95.5699 46.2201 96.1599 46.7901C96.7499 47.3601 97.4499 47.8101 98.2699 48.1401C99.0899 48.4701 100.01 48.6301 101.02 48.6301C101.93 48.6301 102.8 48.3201 103.62 47.6901C104.44 47.0601 105.16 46.2101 105.77 45.1101C106.38 44.0201 106.87 42.7101 107.23 41.1801C107.59 39.6601 107.78 38.0001 107.78 36.2001C107.78 31.5901 107.17 28.1101 105.96 25.7701C104.75 23.4301 103.19 22.2501 101.29 22.2501C99.9099 22.2501 98.6299 22.6801 97.4399 23.5401C96.2499 24.4001 95.2099 25.4401 94.2999 26.6601V42.3601V42.3801Z" fill="#FAF8FF"/>
<path d="M136.76 52.3H125.98V16.68H136.76V19.34C137.98 18.12 139.3 17.13 140.72 16.37C142.14 15.62 143.67 15.24 145.31 15.24C146.27 15.24 147.18 15.37 148.02 15.63C148.87 15.89 149.61 16.24 150.25 16.68C150.89 17.12 151.39 17.64 151.75 18.22C152.11 18.81 152.3 19.43 152.3 20.08C152.3 20.73 152.18 21.29 151.93 21.82C151.68 22.35 151.34 22.8 150.91 23.17C150.48 23.54 149.99 23.82 149.43 24.03C148.87 24.24 148.26 24.34 147.61 24.34C146.75 24.34 146.05 24.2 145.5 23.93C144.95 23.66 144.45 23.36 144 23.05C143.54 22.74 143.09 22.44 142.63 22.17C142.17 21.9 141.59 21.76 140.89 21.76C140.52 21.76 140.16 21.9 139.8 22.17C139.43 22.44 139.08 22.81 138.73 23.26C138.38 23.72 138.03 24.24 137.69 24.84C137.35 25.44 137.04 26.05 136.75 26.68V52.3H136.76Z" fill="#FAF8FF"/>
<path d="M173.71 52.97C170.87 52.97 168.25 52.5 165.84 51.56C163.43 50.62 161.35 49.34 159.61 47.71C157.86 46.08 156.5 44.17 155.51 41.97C154.52 39.77 154.03 37.39 154.03 34.84C154.03 32.11 154.52 29.58 155.49 27.26C156.47 24.94 157.83 22.94 159.57 21.26C161.31 19.58 163.39 18.27 165.8 17.33C168.21 16.39 170.83 15.92 173.67 15.92C176.51 15.92 179.14 16.38 181.56 17.31C183.98 18.23 186.07 19.5 187.83 21.12C189.59 22.74 190.97 24.63 191.97 26.8C192.97 28.97 193.47 31.31 193.47 33.81C193.47 36.44 192.97 38.91 191.97 41.23C190.97 43.55 189.59 45.58 187.83 47.32C186.07 49.07 183.99 50.44 181.58 51.44C179.17 52.44 176.55 52.94 173.71 52.94V52.97ZM174.96 48.63C175.95 48.63 176.86 48.31 177.69 47.67C178.52 47.03 179.24 46.17 179.84 45.09C180.44 44.01 180.91 42.76 181.25 41.34C181.59 39.92 181.76 38.43 181.76 36.87C181.76 34.6 181.59 32.46 181.25 30.44C180.91 28.42 180.36 26.66 179.61 25.15C178.85 23.64 177.86 22.44 176.64 21.56C175.42 20.68 173.92 20.23 172.15 20.23C171.29 20.23 170.47 20.54 169.69 21.17C168.91 21.8 168.22 22.63 167.62 23.69C167.02 24.74 166.54 25.98 166.17 27.38C165.8 28.79 165.62 30.26 165.62 31.79C165.62 34.08 165.83 36.24 166.24 38.27C166.66 40.3 167.27 42.09 168.08 43.62C168.89 45.16 169.87 46.37 171.03 47.27C172.19 48.17 173.5 48.62 174.96 48.62V48.63Z" fill="#FAF8FF"/>
<path d="M205.98 16.02L216.41 38.36L227.03 16.02H234.41L216.83 53.09H211.87L194.6 16.02H205.97H205.98Z" fill="#FAF8FF"/>
<path d="M254.57 53.0899C252.02 53.0899 249.63 52.6199 247.42 51.6799C245.21 50.7399 243.27 49.4799 241.6 47.8899C239.93 46.2999 238.62 44.4499 237.67 42.3199C236.72 40.1999 236.24 37.9599 236.24 35.6199C236.24 32.8099 236.68 30.1999 237.57 27.8099C238.45 25.4099 239.7 23.3399 241.32 21.5799C242.93 19.8199 244.88 18.4399 247.16 17.4399C249.44 16.4399 251.97 15.9399 254.76 15.9399C257.26 15.9399 259.54 16.3399 261.6 17.1299C263.66 17.9199 265.42 19.0099 266.89 20.3699C268.36 21.7399 269.51 23.3499 270.33 25.2099C271.15 27.0699 271.56 29.0599 271.56 31.1699H246.87C246.95 33.1499 247.23 35.0399 247.71 36.8299C248.19 38.6299 248.86 40.2099 249.7 41.5799C250.55 42.9499 251.54 44.0399 252.67 44.8399C253.8 45.6499 255.06 46.0499 256.44 46.0499C257.64 46.0499 258.81 45.8399 259.96 45.4299C261.11 45.0099 262.17 44.4499 263.14 43.7499C264.11 43.0499 264.96 42.2199 265.68 41.2699C266.4 40.3199 266.91 39.3099 267.22 38.2399L272.77 39.0599C272.22 40.9899 271.34 42.7999 270.11 44.5099C268.89 46.2199 267.45 47.7099 265.79 48.9799C264.14 50.2599 262.34 51.2599 260.4 51.9899C258.46 52.7199 256.51 53.0799 254.56 53.0799L254.57 53.0899ZM259.14 27.4999C259.06 26.4599 258.84 25.4999 258.48 24.6299C258.11 23.7599 257.65 23.0099 257.07 22.3799C256.5 21.7599 255.84 21.2699 255.1 20.9299C254.36 20.5899 253.56 20.4199 252.7 20.4199C252.02 20.4199 251.37 20.5899 250.73 20.9299C250.09 21.2699 249.51 21.7399 248.97 22.3599C248.44 22.9699 247.99 23.7099 247.62 24.5899C247.25 25.4599 247.02 26.4299 246.92 27.4999H259.15H259.14Z" fill="#FAF8FF"/>
<path d="M105.97 65.3C106.57 64.92 107.28 64.72 108.11 64.72C108.94 64.72 109.62 64.9 110.25 65.27C110.88 65.64 111.37 66.16 111.73 66.84C112.09 67.52 112.27 68.3 112.27 69.2C112.27 70.1 112.09 70.89 111.73 71.57C111.37 72.25 110.88 72.78 110.24 73.15C109.6 73.52 108.89 73.71 108.1 73.71C107.27 73.71 106.55 73.52 105.95 73.14C105.35 72.76 104.91 72.27 104.63 71.66V73.58H103.53V61.74H104.63V66.78C104.92 66.17 105.36 65.68 105.97 65.29V65.3ZM110.71 67.32C110.43 66.79 110.04 66.39 109.55 66.11C109.06 65.83 108.51 65.69 107.89 65.69C107.27 65.69 106.75 65.83 106.25 66.12C105.75 66.41 105.36 66.82 105.07 67.35C104.78 67.88 104.64 68.5 104.64 69.21C104.64 69.92 104.78 70.53 105.07 71.07C105.36 71.6 105.75 72.01 106.25 72.3C106.75 72.59 107.29 72.73 107.89 72.73C108.49 72.73 109.06 72.59 109.55 72.31C110.04 72.03 110.43 71.62 110.71 71.08C110.99 70.54 111.13 69.91 111.13 69.2C111.13 68.49 110.99 67.85 110.71 67.32Z" fill="#FAF8FF"/>
<path d="M136.44 64.86V73.6H135.32V72.06C135.06 72.6 134.67 73.02 134.14 73.31C133.61 73.6 133.01 73.74 132.35 73.74C131.3 73.74 130.45 73.42 129.79 72.77C129.13 72.13 128.8 71.19 128.8 69.96V64.86H129.9V69.84C129.9 70.79 130.14 71.51 130.61 72.02C131.08 72.52 131.73 72.77 132.55 72.77C133.37 72.77 134.06 72.5 134.57 71.97C135.07 71.44 135.32 70.65 135.32 69.62V64.87H136.44V64.86Z" fill="#FAF8FF"/>
<path d="M154.1 73.02C153.47 72.56 153.11 71.92 153.04 71.12H154.19C154.24 71.61 154.48 72.01 154.89 72.31C155.3 72.61 155.85 72.77 156.55 72.77C157.16 72.77 157.63 72.63 157.98 72.34C158.33 72.05 158.5 71.7 158.5 71.27C158.5 70.97 158.4 70.73 158.21 70.53C158.02 70.34 157.78 70.19 157.48 70.07C157.19 69.96 156.79 69.84 156.29 69.71C155.64 69.54 155.11 69.37 154.71 69.2C154.31 69.03 153.96 68.78 153.68 68.44C153.4 68.1 153.26 67.65 153.26 67.09C153.26 66.66 153.39 66.27 153.64 65.91C153.9 65.55 154.26 65.26 154.73 65.05C155.2 64.84 155.73 64.73 156.33 64.73C157.27 64.73 158.03 64.97 158.6 65.44C159.17 65.91 159.48 66.57 159.53 67.4H158.41C158.38 66.89 158.18 66.47 157.81 66.16C157.44 65.85 156.94 65.69 156.3 65.69C155.73 65.69 155.28 65.82 154.92 66.09C154.57 66.36 154.39 66.69 154.39 67.08C154.39 67.42 154.49 67.7 154.7 67.92C154.91 68.14 155.17 68.31 155.48 68.43C155.79 68.55 156.2 68.69 156.73 68.84C157.36 69.01 157.86 69.18 158.23 69.34C158.6 69.5 158.92 69.73 159.19 70.04C159.46 70.35 159.6 70.76 159.61 71.27C159.61 71.74 159.48 72.16 159.23 72.53C158.98 72.9 158.62 73.19 158.16 73.4C157.7 73.61 157.17 73.72 156.58 73.72C155.58 73.72 154.76 73.49 154.12 73.02H154.1Z" fill="#FAF8FF"/>
<path d="M176.23 62.9699C176.07 62.8099 175.99 62.6099 175.99 62.3799C175.99 62.1499 176.07 61.9499 176.23 61.7999C176.39 61.6499 176.58 61.5699 176.81 61.5699C177.04 61.5699 177.23 61.6499 177.39 61.7999C177.55 61.9599 177.63 62.1499 177.63 62.3799C177.63 62.6099 177.55 62.8099 177.39 62.9699C177.23 63.1299 177.04 63.2099 176.81 63.2099C176.58 63.2099 176.39 63.1299 176.23 62.9699ZM177.37 64.8599V73.5999H176.25V64.8599H177.37Z" fill="#FAF8FF"/>
<path d="M201.11 65.66C201.77 66.31 202.1 67.24 202.1 68.47V73.59H201V68.6C201 67.65 200.76 66.93 200.29 66.42C199.82 65.92 199.17 65.67 198.35 65.67C197.53 65.67 196.84 65.94 196.33 66.47C195.83 67 195.58 67.79 195.58 68.82V73.59H194.46V64.85H195.58V66.34C195.86 65.81 196.26 65.4 196.78 65.12C197.3 64.84 197.9 64.7 198.56 64.7C199.6 64.7 200.46 65.02 201.12 65.67L201.11 65.66Z" fill="#FAF8FF"/>
<path d="M227 69.66H219.75C219.78 70.32 219.94 70.89 220.23 71.36C220.52 71.83 220.9 72.18 221.37 72.42C221.84 72.66 222.35 72.78 222.91 72.78C223.64 72.78 224.25 72.6 224.74 72.25C225.23 71.9 225.56 71.42 225.72 70.83H226.9C226.69 71.68 226.23 72.38 225.53 72.92C224.83 73.46 223.95 73.73 222.9 73.73C222.08 73.73 221.34 73.55 220.69 73.18C220.04 72.81 219.53 72.29 219.16 71.61C218.79 70.93 218.61 70.14 218.61 69.23C218.61 68.32 218.79 67.53 219.15 66.85C219.51 66.17 220.02 65.64 220.67 65.28C221.32 64.92 222.06 64.74 222.89 64.74C223.72 64.74 224.45 64.92 225.07 65.28C225.69 65.64 226.17 66.13 226.51 66.74C226.85 67.35 227.01 68.03 227.01 68.78C227.01 69.16 227 69.46 226.98 69.66H227ZM225.5 67.08C225.23 66.62 224.86 66.27 224.39 66.04C223.92 65.81 223.41 65.69 222.85 65.69C222.02 65.69 221.31 65.96 220.72 66.49C220.13 67.02 219.81 67.78 219.74 68.75H225.88C225.89 68.1 225.76 67.54 225.49 67.09L225.5 67.08Z" fill="#FAF8FF"/>
<path d="M244.18 73.02C243.55 72.56 243.19 71.92 243.12 71.12H244.27C244.32 71.61 244.56 72.01 244.97 72.31C245.38 72.61 245.93 72.77 246.63 72.77C247.24 72.77 247.71 72.63 248.06 72.34C248.41 72.05 248.58 71.7 248.58 71.27C248.58 70.97 248.48 70.73 248.29 70.53C248.1 70.34 247.86 70.19 247.56 70.07C247.27 69.96 246.87 69.84 246.37 69.71C245.72 69.54 245.19 69.37 244.79 69.2C244.39 69.03 244.04 68.78 243.76 68.44C243.48 68.1 243.34 67.65 243.34 67.09C243.34 66.66 243.47 66.27 243.72 65.91C243.98 65.55 244.34 65.26 244.81 65.05C245.28 64.84 245.81 64.73 246.41 64.73C247.35 64.73 248.11 64.97 248.68 65.44C249.25 65.91 249.56 66.57 249.61 67.4H248.49C248.46 66.89 248.26 66.47 247.89 66.16C247.52 65.85 247.02 65.69 246.38 65.69C245.81 65.69 245.36 65.82 245 66.09C244.65 66.36 244.47 66.69 244.47 67.08C244.47 67.42 244.57 67.7 244.78 67.92C244.99 68.14 245.25 68.31 245.56 68.43C245.87 68.55 246.28 68.69 246.81 68.84C247.44 69.01 247.94 69.18 248.31 69.34C248.68 69.5 249 69.73 249.27 70.04C249.54 70.35 249.68 70.76 249.69 71.27C249.69 71.74 249.56 72.16 249.31 72.53C249.06 72.9 248.7 73.19 248.24 73.4C247.78 73.61 247.25 73.72 246.66 73.72C245.66 73.72 244.84 73.49 244.2 73.02H244.18Z" fill="#FAF8FF"/>
<path d="M266.88 73.02C266.25 72.56 265.89 71.92 265.82 71.12H266.97C267.02 71.61 267.26 72.01 267.67 72.31C268.08 72.61 268.63 72.77 269.33 72.77C269.94 72.77 270.41 72.63 270.76 72.34C271.11 72.05 271.28 71.7 271.28 71.27C271.28 70.97 271.18 70.73 270.99 70.53C270.8 70.34 270.56 70.19 270.26 70.07C269.97 69.96 269.57 69.84 269.07 69.71C268.42 69.54 267.89 69.37 267.49 69.2C267.09 69.03 266.74 68.78 266.46 68.44C266.18 68.1 266.04 67.65 266.04 67.09C266.04 66.66 266.17 66.27 266.42 65.91C266.68 65.55 267.04 65.26 267.51 65.05C267.98 64.84 268.51 64.73 269.11 64.73C270.05 64.73 270.81 64.97 271.38 65.44C271.95 65.91 272.26 66.57 272.31 67.4H271.19C271.16 66.89 270.96 66.47 270.59 66.16C270.22 65.85 269.72 65.69 269.08 65.69C268.51 65.69 268.06 65.82 267.7 66.09C267.35 66.36 267.17 66.69 267.17 67.08C267.17 67.42 267.27 67.7 267.48 67.92C267.69 68.14 267.95 68.31 268.26 68.43C268.57 68.55 268.98 68.69 269.51 68.84C270.14 69.01 270.64 69.18 271.01 69.34C271.38 69.5 271.7 69.73 271.97 70.04C272.24 70.35 272.38 70.76 272.39 71.27C272.39 71.74 272.26 72.16 272.01 72.53C271.76 72.9 271.4 73.19 270.94 73.4C270.48 73.61 269.95 73.72 269.36 73.72C268.36 73.72 267.54 73.49 266.9 73.02H266.88Z" fill="#FAF8FF"/>
</g>
<defs>
<clipPath id="clip0_477_2830">
<rect width="272.77" height="73.74" fill="white"/>
</clipPath>
</defs>
</svg>